<svg width="22" height="24" viewBox="0 0 22 24" fill="none" xmlns="http://www.w3.org/2000/svg">
<path d="M2.37037 23.7037C1.71852 23.7037 1.16049 23.4716 0.696296 23.0074C0.232099 22.5432 0 21.9852 0 21.3333V4.74074C0 4.08889 0.232099 3.53086 0.696296 3.06667C1.16049 2.60247 1.71852 2.37037 2.37037 2.37037H3.55556V1.18519C3.55556 0.849383 3.66914 0.567901 3.8963 0.340741C4.12346 0.11358 4.40494 0 4.74074 0C5.07654 0 5.35803 0.11358 5.58519 0.340741C5.81235 0.567901 5.92593 0.849383 5.92593 1.18519V2.37037H15.4074V1.18519C15.4074 0.849383 15.521 0.567901 15.7481 0.340741C15.9753 0.11358 16.2568 0 16.5926 0C16.9284 0 17.2099 0.11358 17.437 0.340741C17.6642 0.567901 17.7778 0.849383 17.7778 1.18519V2.37037H18.963C19.6148 2.37037 20.1728 2.60247 20.637 3.06667C21.1012 3.53086 21.3333 4.08889 21.3333 4.74074V21.3333C21.3333 21.9852 21.1012 22.5432 20.637 23.0074C20.1728 23.4716 19.6148 23.7037 18.963 23.7037H2.37037ZM2.37037 21.3333H18.963V9.48148H2.37037V21.3333Z" fill="#CBB9A8"/>
</svg>
