<svg width="40" height="41" viewBox="0 0 40 41" fill="none" xmlns="http://www.w3.org/2000/svg">
<path d="M9.42503 35.4864C9.42503 35.1455 9.70141 34.8692 10.0422 34.8692C10.3832 34.8692 10.6594 35.1455 10.6594 35.4864C10.6594 35.8272 10.3832 36.1036 10.0422 36.1036C9.70141 36.1036 9.42503 35.8272 9.42503 35.4864ZM25.4724 34.252C25.1316 34.252 24.8552 34.5283 24.8552 34.8692C24.8552 35.21 25.1316 35.4864 25.4724 35.4864C25.8134 35.4864 26.0896 35.21 26.0896 34.8692C26.0896 34.5283 25.8134 34.252 25.4724 34.252ZM8.80782 17.5874C8.467 17.5874 8.19061 17.8636 8.19061 18.2046C8.19061 18.5454 8.467 18.8218 8.80782 18.8218C9.14877 18.8218 9.42503 18.5454 9.42503 18.2046C9.42503 17.8636 9.14877 17.5874 8.80782 17.5874ZM11.2767 17.5874C10.9358 17.5874 10.6594 17.8636 10.6594 18.2046C10.6594 18.5454 10.9358 18.8218 11.2767 18.8218C11.6176 18.8218 11.8939 18.5454 11.8939 18.2046C11.8939 17.8636 11.6176 17.5874 11.2767 17.5874ZM8.80782 12.6497C8.467 12.6497 8.19061 12.926 8.19061 13.2669C8.19061 13.6077 8.467 13.8841 8.80782 13.8841C9.14877 13.8841 9.42503 13.6077 9.42503 13.2669C9.42503 12.926 9.14877 12.6497 8.80782 12.6497ZM11.2767 12.6497C10.9358 12.6497 10.6594 12.926 10.6594 13.2669C10.6594 13.6077 10.9358 13.8841 11.2767 13.8841C11.6176 13.8841 11.8939 13.6077 11.8939 13.2669C11.8939 12.926 11.6176 12.6497 11.2767 12.6497ZM8.80782 10.1809C8.467 10.1809 8.19061 10.4571 8.19061 10.7981C8.19061 11.1389 8.467 11.4153 8.80782 11.4153C9.14877 11.4153 9.42503 11.1389 9.42503 10.7981C9.42503 10.4571 9.14877 10.1809 8.80782 10.1809ZM11.2767 10.1809C10.9358 10.1809 10.6594 10.4571 10.6594 10.7981C10.6594 11.1389 10.9358 11.4153 11.2767 11.4153C11.6176 11.4153 11.8939 11.1389 11.8939 10.7981C11.8939 10.4571 11.6176 10.1809 11.2767 10.1809ZM8.80782 7.71206C8.467 7.71206 8.19061 7.98832 8.19061 8.32926C8.19061 8.67009 8.467 8.94647 8.80782 8.94647C9.14877 8.94647 9.42503 8.67009 9.42503 8.32926C9.42503 7.98832 9.14877 7.71206 8.80782 7.71206ZM11.2767 7.71206C10.9358 7.71206 10.6594 7.98832 10.6594 8.32926C10.6594 8.67009 10.9358 8.94647 11.2767 8.94647C11.6176 8.94647 11.8939 8.67009 11.8939 8.32926C11.8939 7.98832 11.6176 7.71206 11.2767 7.71206ZM8.80782 5.24323C8.467 5.24323 8.19061 5.51949 8.19061 5.86043C8.19061 6.20126 8.467 6.47764 8.80782 6.47764C9.14877 6.47764 9.42503 6.20126 9.42503 5.86043C9.42503 5.51949 9.14877 5.24323 8.80782 5.24323ZM11.2767 5.24323C10.9358 5.24323 10.6594 5.51949 10.6594 5.86043C10.6594 6.20126 10.9358 6.47764 11.2767 6.47764C11.6176 6.47764 11.8939 6.20126 11.8939 5.86043C11.8939 5.51949 11.6176 5.24323 11.2767 5.24323ZM8.80782 15.1186C8.467 15.1186 8.19061 15.3948 8.19061 15.7358C8.19061 16.0766 8.467 16.353 8.80782 16.353C9.14877 16.353 9.42503 16.0766 9.42503 15.7358C9.42503 15.3948 9.14877 15.1186 8.80782 15.1186ZM11.2767 15.1186C10.9358 15.1186 10.6594 15.3948 10.6594 15.7358C10.6594 16.0766 10.9358 16.353 11.2767 16.353C11.6176 16.353 11.8939 16.0766 11.8939 15.7358C11.8939 15.3948 11.6176 15.1186 11.2767 15.1186ZM14.9799 6.47764V7.71206H16.8315C17.1727 7.71206 17.4487 7.98807 17.4487 8.32926C17.4487 8.67046 17.1727 8.94647 16.8315 8.94647H14.9799V10.1809H16.8315C17.1727 10.1809 17.4487 10.4569 17.4487 10.7981C17.4487 11.1393 17.1727 11.4153 16.8315 11.4153H14.9799V12.6497H16.8315C17.1727 12.6497 17.4487 12.9257 17.4487 13.2669C17.4487 13.6081 17.1727 13.8841 16.8315 13.8841H14.9799V15.1186H16.8315C17.1727 15.1186 17.4487 15.3946 17.4487 15.7358C17.4487 16.077 17.1727 16.353 16.8315 16.353H14.9799V17.5874H16.8315C17.1727 17.5874 17.4487 17.8634 17.4487 18.2046C17.4487 18.5458 17.1727 18.8218 16.8315 18.8218H14.7184C14.3208 19.7277 13.5033 20.4088 12.5111 20.6111V35.4864C12.5111 36.8474 11.4038 37.9552 10.0422 37.9552C8.68068 37.9552 7.5734 36.8474 7.5734 35.4864V20.6111C6.58118 20.4088 5.76363 19.7277 5.36602 18.8218H3.25295C2.91176 18.8218 2.63574 18.5458 2.63574 18.2046C2.63574 17.8634 2.91176 17.5874 3.25295 17.5874H5.10457V16.353H3.25295C2.91176 16.353 2.63574 16.077 2.63574 15.7358C2.63574 15.3946 2.91176 15.1186 3.25295 15.1186H5.10457V13.8841H3.25295C2.91176 13.8841 2.63574 13.6081 2.63574 13.2669C2.63574 12.9257 2.91176 12.6497 3.25295 12.6497H5.10457V11.4153H3.25295C2.91176 11.4153 2.63574 11.1393 2.63574 10.7981C2.63574 10.4569 2.91176 10.1809 3.25295 10.1809H5.10457V8.94647H3.25295C2.91176 8.94647 2.63574 8.67046 2.63574 8.32926C2.63574 7.98807 2.91176 7.71206 3.25295 7.71206H5.10457V6.47764H3.25295C2.91176 6.47764 2.63574 6.20163 2.63574 5.86043C2.63574 5.51924 2.91176 5.24323 3.25295 5.24323H5.36602C5.84349 4.15509 6.9283 3.3916 8.19061 3.3916H11.8939C13.1562 3.3916 14.241 4.15509 14.7184 5.24323H16.8315C17.1727 5.24323 17.4487 5.51924 17.4487 5.86043C17.4487 6.20163 17.1727 6.47764 16.8315 6.47764H14.9799ZM11.2767 20.6734H8.80782V35.4864C8.80782 36.1676 9.3617 36.7208 10.0422 36.7208C10.7228 36.7208 11.2767 36.1676 11.2767 35.4864V20.6734ZM13.7455 6.47764H13.1283C12.7871 6.47764 12.5111 6.20163 12.5111 5.86043C12.5111 5.51924 12.7871 5.24323 13.1283 5.24323H13.2639C12.9247 4.86722 12.439 4.62602 11.8939 4.62602H8.19061C7.64549 4.62602 7.15975 4.86722 6.82053 5.24323H6.9562C7.29739 5.24323 7.5734 5.51924 7.5734 5.86043C7.5734 6.20163 7.29739 6.47764 6.9562 6.47764H6.33899V7.71206H6.9562C7.29739 7.71206 7.5734 7.98807 7.5734 8.32926C7.5734 8.67046 7.29739 8.94647 6.9562 8.94647H6.33899V10.1809H6.9562C7.29739 10.1809 7.5734 10.4569 7.5734 10.7981C7.5734 11.1393 7.29739 11.4153 6.9562 11.4153H6.33899V12.6497H6.9562C7.29739 12.6497 7.5734 12.9257 7.5734 13.2669C7.5734 13.6081 7.29739 13.8841 6.9562 13.8841H6.33899V15.1186H6.9562C7.29739 15.1186 7.5734 15.3946 7.5734 15.7358C7.5734 16.077 7.29739 16.353 6.9562 16.353H6.33899V17.5874H6.9562C7.29739 17.5874 7.5734 17.8634 7.5734 18.2046C7.5734 18.5458 7.29739 18.8218 6.9562 18.8218H6.82053C7.15975 19.1978 7.64549 19.439 8.19061 19.439H11.8939C12.439 19.439 12.9247 19.1978 13.2639 18.8218H13.1283C12.7871 18.8218 12.5111 18.5458 12.5111 18.2046C12.5111 17.8634 12.7871 17.5874 13.1283 17.5874H13.7455V16.353H13.1283C12.7871 16.353 12.5111 16.077 12.5111 15.7358C12.5111 15.3946 12.7871 15.1186 13.1283 15.1186H13.7455V13.8841H13.1283C12.7871 13.8841 12.5111 13.6081 12.5111 13.2669C12.5111 12.9257 12.7871 12.6497 13.1283 12.6497H13.7455V11.4153H13.1283C12.7871 11.4153 12.5111 11.1393 12.5111 10.7981C12.5111 10.4569 12.7871 10.1809 13.1283 10.1809H13.7455V8.94647H13.1283C12.7871 8.94647 12.5111 8.67046 12.5111 8.32926C12.5111 7.98807 12.7871 7.71206 13.1283 7.71206H13.7455V6.47764ZM28.5585 9.56368V10.7981H36.5822C36.9234 10.7981 37.1994 11.0741 37.1994 11.4153C37.1994 11.7565 36.9234 12.0325 36.5822 12.0325H28.5585V13.2669H36.5822C36.9234 13.2669 37.1994 13.5429 37.1994 13.8841C37.1994 14.2253 36.9234 14.5013 36.5822 14.5013H28.5585V15.7358H36.5822C36.9234 15.7358 37.1994 16.0118 37.1994 16.353C37.1994 16.6942 36.9234 16.9702 36.5822 16.9702H28.5585V18.2046H36.5822C36.9234 18.2046 37.1994 18.4806 37.1994 18.8218C37.1994 19.163 36.9234 19.439 36.5822 19.439H28.5585V20.6734H36.5822C36.9234 20.6734 37.1994 20.9494 37.1994 21.2906C37.1994 21.6318 36.9234 21.9078 36.5822 21.9078H28.5585V23.1423H36.5822C36.9234 23.1423 37.1994 23.4183 37.1994 23.7595C37.1994 24.5924 36.8745 25.3675 36.2844 25.9426C35.722 26.5212 34.9469 26.8455 34.1133 26.8455H28.5585V34.7185C28.5585 36.2929 27.4573 37.6647 25.9968 37.9118C25.8239 37.9408 25.6502 37.9552 25.4785 37.9552C24.7515 37.9552 24.0458 37.7008 23.484 37.2259C22.7866 36.6353 22.3864 35.777 22.3864 34.8692V6.47764C22.3864 4.7755 23.7709 3.3916 25.4724 3.3916H34.1133C34.9469 3.3916 35.722 3.71588 36.2965 4.30655C36.8745 4.86957 37.1994 5.64466 37.1994 6.47764C37.1994 6.81883 36.9234 7.09485 36.5822 7.09485H28.5585V8.32926H36.5822C36.9234 8.32926 37.1994 8.60528 37.1994 8.94647C37.1994 9.28766 36.9234 9.56368 36.5822 9.56368H28.5585ZM27.9413 24.3767C27.6001 24.3767 27.3241 24.1007 27.3241 23.7595V6.47764C27.3241 6.13645 27.6001 5.86043 27.9413 5.86043H35.86C35.7697 5.60491 35.6219 5.37222 35.4237 5.17928C35.0717 4.81896 34.6106 4.62602 34.1133 4.62602H25.4724C24.4514 4.62602 23.6208 5.45666 23.6208 6.47764V34.8692C23.6208 35.4128 23.8613 35.9276 24.2809 36.2832C24.7046 36.6401 25.241 36.7859 25.7919 36.6943C26.6652 36.5473 27.3241 35.6974 27.3241 34.7185V26.2283C27.3241 25.8871 27.6001 25.6111 27.9413 25.6111H34.1133C34.6106 25.6111 35.0717 25.4181 35.4117 25.0698C35.6172 24.8697 35.768 24.6347 35.8595 24.3767H27.9413ZM25.5514 5.86043C25.2109 5.86043 24.9336 6.13534 24.9324 6.47517L24.8552 32.3979C24.854 32.7391 25.1295 33.0163 25.4706 33.0176H25.4724C25.8124 33.0176 26.0884 32.7427 26.0896 32.4028L26.1668 6.48011C26.168 6.13892 25.8925 5.86167 25.5514 5.86043Z" fill="#2E2E2E"/>
</svg>
