<svg width="20" height="22" viewBox="0 0 20 22" fill="none" xmlns="http://www.w3.org/2000/svg">
<path d="M0 19.4857V8.17143C0 7.77333 0.0885417 7.39619 0.265625 7.04C0.442708 6.68381 0.6875 6.39048 1 6.16L8.5 0.502857C8.9375 0.167619 9.4375 0 10 0C10.5625 0 11.0625 0.167619 11.5 0.502857L19 6.16C19.3125 6.39048 19.5573 6.68381 19.7344 7.04C19.9115 7.39619 20 7.77333 20 8.17143V19.4857C20 20.1771 19.7552 20.769 19.2656 21.2614C18.776 21.7538 18.1875 22 17.5 22H13.75C13.3958 22 13.099 21.8795 12.8594 21.6386C12.6198 21.3976 12.5 21.099 12.5 20.7429V14.4571C12.5 14.101 12.3802 13.8024 12.1406 13.5614C11.901 13.3205 11.6042 13.2 11.25 13.2H8.75C8.39583 13.2 8.09896 13.3205 7.85938 13.5614C7.61979 13.8024 7.5 14.101 7.5 14.4571V20.7429C7.5 21.099 7.38021 21.3976 7.14062 21.6386C6.90104 21.8795 6.60417 22 6.25 22H2.5C1.8125 22 1.22396 21.7538 0.734375 21.2614C0.244792 20.769 0 20.1771 0 19.4857Z" fill="#CBB9A8"/>
</svg>
