<svg width="38" height="37" viewBox="0 0 38 37" fill="none" xmlns="http://www.w3.org/2000/svg">
<path d="M35.0631 16.1745H34.476V13.2942C34.476 12.9757 34.2134 12.7181 33.8889 12.7181H33.3017V6.38143C33.3017 6.20031 33.2146 6.02922 33.0666 5.92069L28.3695 2.46433C28.1923 2.3338 27.9544 2.31248 27.7549 2.40972C27.5559 2.50765 27.4303 2.70674 27.4303 2.92506V12.7181H26.8432C26.5186 12.7181 26.2561 12.9757 26.2561 13.2942V16.1745H25.6689C25.3443 16.1745 25.0818 16.4321 25.0818 16.7505V29.9999H19.2104H3.48611C3.09156 29.9999 2.77051 30.3149 2.77051 30.702C2.77051 32.856 4.55658 34.6084 6.75201 34.6084H35.0631C35.3877 34.6084 35.6503 34.3508 35.6503 34.0323V16.7505C35.6503 16.4321 35.3877 16.1745 35.0631 16.1745ZM28.6046 4.07719L32.1274 6.66946V12.7181H28.6046V4.07719ZM27.4303 13.8702H33.3017V16.1745H27.4303V13.8702ZM34.476 17.3266V19.6308H26.2561V17.3266H34.476ZM3.98201 31.152H25.0818V33.4563H6.75201C5.36049 33.4563 4.20172 32.4572 3.98201 31.152ZM26.2561 33.4563V30.702V20.7829H34.476V33.4563H26.2561ZM18.1346 20.5422C18.1079 20.5159 11.7496 14.2776 11.7496 14.2776C11.5203 14.0526 11.5203 13.6881 11.7496 13.4631C11.979 13.238 12.3505 13.238 12.5798 13.4631L18.965 19.7277C19.3297 20.0856 19.0624 20.7063 18.5499 20.7046C18.3954 20.7039 18.2424 20.6478 18.1346 20.5422ZM11.9927 16.3432L16.6164 20.8797C16.8457 21.1047 16.8457 21.4693 16.6164 21.6943C16.3892 21.9172 16.014 21.9179 15.7862 21.6943C15.7824 21.6906 11.1625 17.1578 11.1625 17.1578C10.9331 16.9328 10.9331 16.5683 11.1625 16.3432C11.3918 16.1182 11.7634 16.1182 11.9927 16.3432ZM19.309 18.2379C19.3055 18.2345 14.6853 13.7014 14.6853 13.7014C14.456 13.4764 14.456 13.1119 14.6853 12.8869C14.9146 12.6619 15.2862 12.6619 15.5155 12.8869L20.1392 17.4234C20.5014 17.7787 20.2374 18.4054 19.7241 18.4054C19.5734 18.4054 19.4228 18.3496 19.309 18.2379ZM8.268 28.913C5.48027 26.0992 3.94479 22.3935 3.94479 18.4787C3.94479 10.2197 10.7926 3.50113 19.2104 3.50113C21.5659 3.50113 23.8261 4.01589 25.9275 5.03011C26.2187 5.17078 26.338 5.51619 26.1952 5.80134C26.053 6.08706 25.7004 6.20354 25.4092 6.06402C23.47 5.12804 21.3847 4.65325 19.2104 4.65325C11.4405 4.65325 5.11906 10.8555 5.11906 18.4787C5.11906 22.092 6.53641 25.5124 9.10973 28.1097C9.33566 28.3381 9.33049 28.7026 9.09822 28.9243C8.9842 29.0334 8.83624 29.0874 8.68887 29.0874C8.53586 29.0874 8.38332 29.0289 8.268 28.913ZM23.9138 29.0351C22.4265 29.6754 20.8439 29.9999 19.2104 29.9999C12.7352 29.9999 7.46762 24.8317 7.46762 18.4787C7.46762 12.1257 12.7352 6.95749 19.2104 6.95749C21.6639 6.95749 24.0159 7.69554 26.0112 9.09133C26.2755 9.27636 26.3368 9.63594 26.1488 9.89471C25.9607 10.1552 25.5938 10.2148 25.33 10.0297C23.5342 8.77346 21.4185 8.10961 19.2104 8.10961C13.3832 8.10961 8.64189 12.7614 8.64189 18.4787C8.64189 24.196 13.3832 28.8478 19.2104 28.8478C20.6806 28.8478 22.1043 28.5558 23.4425 27.9798C23.743 27.8549 24.0853 27.9854 24.216 28.2762C24.3461 28.5676 24.2108 28.9075 23.9138 29.0351Z" fill="white"/>
</svg>
