<svg width="22" height="42" viewBox="0 0 22 42" fill="none" xmlns="http://www.w3.org/2000/svg">
<path d="M15.6511 16.5747L14.3658 0.667962C14.3351 0.289901 14.0533 0 13.7153 0H7.18488C6.84686 0 6.56501 0.289901 6.53432 0.667962L5.24652 16.605C1.15014 21.8907 -0.566052 26.5978 0.163393 30.5928C0.794361 34.0421 3.03037 35.8309 3.91968 36.422V40.4068C3.91968 40.813 4.21172 41.1415 4.57272 41.1415H16.3274C16.6884 41.1415 16.9805 40.813 16.9805 40.4068V36.4658C17.319 36.2661 20.2785 34.4185 20.9396 30.3231C21.5828 26.3375 19.7936 21.7113 15.6511 16.5747ZM11.1031 17.6321H14.7394C16.0121 19.2166 17.0437 20.7374 17.8324 22.1907C17.2067 23.0273 15.5672 25.0496 13.9333 25.6079C13.0927 25.8992 12.1088 25.4321 11.103 24.7685L11.1031 17.6321ZM7.78176 1.46934H13.1183L14.3058 16.1627H6.59427L7.78176 1.46934ZM9.79704 17.6321V23.8455C8.95919 23.232 8.09509 22.6099 7.24104 22.2668C5.75328 21.6666 3.91863 22.5868 2.55574 23.5469C3.36825 21.6961 4.56932 19.7246 6.18455 17.6321H9.79704ZM15.6744 39.6722H5.22576V36.7335H15.6744V39.6722ZM19.6577 30.0396C19.0978 33.5674 16.3657 35.1709 16.3389 35.1866C16.3046 35.2064 16.2817 35.2389 16.2519 35.2642H4.74186C4.21694 34.9391 2.01202 33.4094 1.44283 30.2972C1.2063 29.0023 1.28336 27.6021 1.65285 26.1084C2.64064 25.1644 5.29798 23.0488 6.80233 23.6499C7.54588 23.9491 8.3405 24.5317 9.18357 25.1486C9.38719 25.2976 9.59185 25.4463 9.79704 25.5931V27.1828C9.79704 27.5889 10.0891 27.9175 10.4501 27.9175C10.8111 27.9175 11.1031 27.5889 11.1031 27.1828V26.4455C11.8503 26.8717 12.6073 27.1699 13.3748 27.1699C13.686 27.1699 13.9997 27.1211 14.3136 27.0141C16.0319 26.4265 17.6453 24.6391 18.5047 23.5575C19.5643 25.9152 19.968 28.087 19.6577 30.0396ZM11.1031 30.1215V33.152C11.1031 33.5581 10.8111 33.8867 10.4501 33.8867C10.0891 33.8867 9.79704 33.5581 9.79704 33.152V30.1215C9.79704 29.7153 10.0891 29.3868 10.4501 29.3868C10.8111 29.3868 11.1031 29.7153 11.1031 30.1215Z" fill="white"/>
</svg>
