<svg width="36" height="30" viewBox="0 0 36 30" fill="none" xmlns="http://www.w3.org/2000/svg">
<path d="M31.9773 15.0739H31.3502V13.4239C31.3502 12.021 30.1432 10.8738 28.5944 10.7075C28.6359 8.70771 27.3886 6.88035 24.7701 5.14252C24.6268 5.04693 24.4432 5.01041 24.2656 5.04154C24.0893 5.07377 23.9374 5.17046 23.848 5.30797C22.6957 7.07505 21.4049 8.20731 18.7681 8.00975C18.5857 8.00117 18.4013 8.05485 18.2703 8.1687C18.2703 8.1687 13.6785 12.166 12.6883 13.035C12.4433 13.2498 12.4433 13.5979 12.6883 13.8127C12.8108 13.9202 12.9712 13.9739 13.1316 13.9739H30.0961V15.0739H10.6583C10.4918 15.0739 10.3325 15.1319 10.215 15.2351L6.45289 18.5351C6.33526 18.6383 6.26917 18.7779 6.26917 18.924V26.6242C6.26917 28.141 7.67571 29.3743 9.40429 29.3743H31.9771C33.7064 29.3743 35.1123 28.141 35.1123 26.6242V17.824C35.1124 16.3071 33.7065 15.0739 31.9773 15.0739ZM18.9555 9.12363C21.8776 9.26224 23.4647 7.90656 24.5607 6.3993C26.4528 7.77973 27.3725 9.1848 27.3541 10.6737H17.1883L18.9555 9.12363ZM15.9344 11.7738H28.2153C29.0316 11.7738 29.7211 12.2351 29.9808 12.8738H14.6542C14.7334 12.8066 15.1083 12.4979 15.9344 11.7738ZM33.8583 26.6242C33.8583 27.534 33.0145 28.2742 31.9773 28.2742H9.40442C8.36719 28.2742 7.52334 27.534 7.52334 26.6242V19.1517L10.9181 16.1739H31.9773C33.0145 16.1739 33.8583 16.9141 33.8583 17.824V26.6242ZM28.3952 19.4815C22.8953 18.042 17.7021 18.0431 12.9609 19.489C12.7086 19.5663 12.5397 19.7748 12.5397 20.009V24.4391C12.5397 24.6754 12.7117 24.885 12.967 24.9601C15.5297 25.7153 18.1106 26.0923 20.691 26.0923C23.2713 26.0923 25.8516 25.7153 28.4149 24.9601C28.6696 24.8848 28.8423 24.6754 28.8423 24.4391V20.009C28.8422 19.7662 28.6597 19.5514 28.3952 19.4815ZM27.5881 24.0396C23.0067 25.3093 18.3726 25.3093 13.7936 24.0396V20.4043C18.0903 19.1776 22.6123 19.185 27.5881 20.4215V24.0396ZM20.0589 5.91265C20.7913 5.26914 20.7913 4.2218 20.0589 3.57828L16.5117 0.467292C15.8014 -0.155764 14.5614 -0.155764 13.8511 0.467292L0.550213 12.1347C-0.183404 12.7783 -0.183404 13.8256 0.550213 14.4691L4.09679 17.5801C4.46359 17.9024 4.94552 18.0625 5.42733 18.0625C5.90863 18.0625 6.39056 17.9013 6.75725 17.5801L20.0589 5.91265ZM4.9834 16.8024L1.43683 13.6914C1.19191 13.4766 1.19191 13.1274 1.43683 12.9126L14.7379 1.24512C14.8566 1.14095 15.014 1.08397 15.1812 1.08397C15.349 1.08397 15.5057 1.14095 15.6245 1.24512L19.1723 4.35611C19.416 4.57095 19.416 4.9201 19.1723 5.13493L5.87076 16.8024C5.62584 17.0172 5.22957 17.0172 4.9834 16.8024Z" fill="white"/>
</svg>
