<svg width="25" height="24" viewBox="0 0 25 24" fill="none" xmlns="http://www.w3.org/2000/svg">
<path d="M3.41667 10.6667C2.68333 10.6667 2.05556 10.4056 1.53333 9.88333C1.01111 9.36111 0.75 8.73333 0.75 8V2.66667C0.75 1.93333 1.01111 1.30556 1.53333 0.783333C2.05556 0.261111 2.68333 0 3.41667 0H8.75C9.48333 0 10.1111 0.261111 10.6333 0.783333C11.1556 1.30556 11.4167 1.93333 11.4167 2.66667V8C11.4167 8.73333 11.1556 9.36111 10.6333 9.88333C10.1111 10.4056 9.48333 10.6667 8.75 10.6667H3.41667ZM3.41667 24C2.68333 24 2.05556 23.7389 1.53333 23.2167C1.01111 22.6944 0.75 22.0667 0.75 21.3333V16C0.75 15.2667 1.01111 14.6389 1.53333 14.1167C2.05556 13.5944 2.68333 13.3333 3.41667 13.3333H8.75C9.48333 13.3333 10.1111 13.5944 10.6333 14.1167C11.1556 14.6389 11.4167 15.2667 11.4167 16V21.3333C11.4167 22.0667 11.1556 22.6944 10.6333 23.2167C10.1111 23.7389 9.48333 24 8.75 24H3.41667ZM16.75 10.6667C16.0167 10.6667 15.3889 10.4056 14.8667 9.88333C14.3444 9.36111 14.0833 8.73333 14.0833 8V2.66667C14.0833 1.93333 14.3444 1.30556 14.8667 0.783333C15.3889 0.261111 16.0167 0 16.75 0H22.0833C22.8167 0 23.4444 0.261111 23.9667 0.783333C24.4889 1.30556 24.75 1.93333 24.75 2.66667V8C24.75 8.73333 24.4889 9.36111 23.9667 9.88333C23.4444 10.4056 22.8167 10.6667 22.0833 10.6667H16.75ZM16.75 24C16.0167 24 15.3889 23.7389 14.8667 23.2167C14.3444 22.6944 14.0833 22.0667 14.0833 21.3333V16C14.0833 15.2667 14.3444 14.6389 14.8667 14.1167C15.3889 13.5944 16.0167 13.3333 16.75 13.3333H22.0833C22.8167 13.3333 23.4444 13.5944 23.9667 14.1167C24.4889 14.6389 24.75 15.2667 24.75 16V21.3333C24.75 22.0667 24.4889 22.6944 23.9667 23.2167C23.4444 23.7389 22.8167 24 22.0833 24H16.75Z" fill="#CBB9A8"/>
</svg>
